# xmcd
#
# Track frame offsets:
#	150
#	18327
#	55375
#	85060
#	115591
#	151479
#	168555
#	215753
#	236790
#	282380
#
# Disc length: 4705 seconds
#
# Revision: 1
# Processed by: cddbd v1.5.2PL0 Copyright (c) Steve Scherf et al.
# Submitted via: audiograbber 1.83.01
#
DISCID=89125f0a
DTITLE=Grateful Dead - 72-08-24 Berkeley Community Theatre, Berkeley CA
DYEAR=1900
DGENRE=
TTITLE0=Promised Land
TTITLE1=Sugaree
TTITLE2=Jack Straw
TTITLE3=China Cat Sunflower
TTITLE4=I Know You Rider
TTITLE5=Me and My Uncle
TTITLE6=Bird Song
TTITLE7=BIODTL
TTITLE8=Tennessee Jed
TTITLE9=Playing In The Band
EXTD=
EXTT0=
EXTT1=
EXTT2=
EXTT3=
EXTT4=
EXTT5=
EXTT6=
EXTT7=
EXTT8=
EXTT9=
PLAYORDER=
